<mxfile host="app.diagrams.net" modified="2023-11-22T17:56:56.976Z" agent="Mozilla/5.0 (Windows NT 10.0; Win64; x64) AppleWebKit/537.36 (KHTML, like Gecko) Chrome/119.0.0.0 Safari/537.36" etag="6RZTGSq3hgonPdOoQGpe" version="22.1.3" type="device">
  <diagram id="R2lEEEUBdFMjLlhIrx00" name="Page-1">
    <mxGraphModel dx="1430" dy="771" grid="1" gridSize="10" guides="1" tooltips="1" connect="1" arrows="1" fold="1" page="1" pageScale="1" pageWidth="850" pageHeight="1100" math="0" shadow="0" extFonts="Permanent Marker^https://fonts.googleapis.com/css?family=Permanent+Marker">
      <root>
        <mxCell id="0" />
        <mxCell id="1" parent="0" />
        <mxCell id="e7eTB-TKiGBDShrMW0o7-1" value="&lt;b&gt;BadWiki&lt;/b&gt;" style="rounded=1;arcSize=10;whiteSpace=wrap;html=1;align=center;" vertex="1" parent="1">
          <mxGeometry x="430" y="290" width="160" height="80" as="geometry" />
        </mxCell>
        <mxCell id="e7eTB-TKiGBDShrMW0o7-4" value="Pagina" style="rounded=1;arcSize=10;whiteSpace=wrap;html=1;align=center;" vertex="1" parent="1">
          <mxGeometry x="430" y="520" width="160" height="80" as="geometry" />
        </mxCell>
        <mxCell id="e7eTB-TKiGBDShrMW0o7-7" value="" style="endArrow=none;html=1;rounded=0;exitX=0.5;exitY=0;exitDx=0;exitDy=0;entryX=0.5;entryY=1;entryDx=0;entryDy=0;" edge="1" parent="1" source="e7eTB-TKiGBDShrMW0o7-4" target="e7eTB-TKiGBDShrMW0o7-1">
          <mxGeometry relative="1" as="geometry">
            <mxPoint x="500" y="510" as="sourcePoint" />
            <mxPoint x="660" y="510" as="targetPoint" />
          </mxGeometry>
        </mxCell>
        <mxCell id="e7eTB-TKiGBDShrMW0o7-8" value="(1,N)" style="text;html=1;align=center;verticalAlign=middle;resizable=0;points=[];autosize=1;strokeColor=none;fillColor=none;" vertex="1" parent="1">
          <mxGeometry x="500" y="370" width="50" height="30" as="geometry" />
        </mxCell>
        <mxCell id="e7eTB-TKiGBDShrMW0o7-9" value="(1,1)" style="text;html=1;align=center;verticalAlign=middle;resizable=0;points=[];autosize=1;strokeColor=none;fillColor=none;" vertex="1" parent="1">
          <mxGeometry x="500" y="490" width="50" height="30" as="geometry" />
        </mxCell>
        <mxCell id="e7eTB-TKiGBDShrMW0o7-13" value="Titolo" style="ellipse;whiteSpace=wrap;html=1;align=center;fontStyle=4;" vertex="1" parent="1">
          <mxGeometry x="270" y="580" width="120" height="80" as="geometry" />
        </mxCell>
        <mxCell id="e7eTB-TKiGBDShrMW0o7-14" value="" style="endArrow=none;html=1;rounded=0;exitX=1;exitY=0;exitDx=0;exitDy=0;entryX=0;entryY=0.75;entryDx=0;entryDy=0;" edge="1" parent="1" source="e7eTB-TKiGBDShrMW0o7-13" target="e7eTB-TKiGBDShrMW0o7-4">
          <mxGeometry relative="1" as="geometry">
            <mxPoint x="360" y="680" as="sourcePoint" />
            <mxPoint x="430" y="600" as="targetPoint" />
          </mxGeometry>
        </mxCell>
        <mxCell id="e7eTB-TKiGBDShrMW0o7-21" value="Frase" style="rounded=1;arcSize=24;whiteSpace=wrap;html=1;align=center;" vertex="1" parent="1">
          <mxGeometry x="430" y="820" width="160" height="60" as="geometry" />
        </mxCell>
        <mxCell id="e7eTB-TKiGBDShrMW0o7-24" value="Frasi Citazioni, è possibile che la stessa frase sia in più pagine?" style="text;html=1;align=center;verticalAlign=middle;resizable=0;points=[];autosize=1;strokeColor=none;fillColor=none;" vertex="1" parent="1">
          <mxGeometry x="10" y="1420" width="360" height="30" as="geometry" />
        </mxCell>
        <mxCell id="e7eTB-TKiGBDShrMW0o7-25" value="1°" style="text;html=1;align=center;verticalAlign=middle;resizable=0;points=[];autosize=1;strokeColor=none;fillColor=none;" vertex="1" parent="1">
          <mxGeometry x="459.41" y="660" width="30" height="30" as="geometry" />
        </mxCell>
        <mxCell id="e7eTB-TKiGBDShrMW0o7-26" value="1°" style="text;html=1;align=center;verticalAlign=middle;resizable=0;points=[];autosize=1;strokeColor=none;fillColor=none;" vertex="1" parent="1">
          <mxGeometry x="15" y="1400" width="30" height="30" as="geometry" />
        </mxCell>
        <mxCell id="e7eTB-TKiGBDShrMW0o7-28" value="Contenuto" style="ellipse;whiteSpace=wrap;html=1;align=center;" vertex="1" parent="1">
          <mxGeometry x="330" y="920" width="100" height="40" as="geometry" />
        </mxCell>
        <mxCell id="e7eTB-TKiGBDShrMW0o7-30" value="" style="endArrow=none;html=1;rounded=0;exitX=1;exitY=0;exitDx=0;exitDy=0;entryX=0.25;entryY=1;entryDx=0;entryDy=0;" edge="1" parent="1" source="e7eTB-TKiGBDShrMW0o7-28" target="e7eTB-TKiGBDShrMW0o7-21">
          <mxGeometry relative="1" as="geometry">
            <mxPoint x="410" y="860" as="sourcePoint" />
            <mxPoint x="570" y="860" as="targetPoint" />
          </mxGeometry>
        </mxCell>
        <mxCell id="e7eTB-TKiGBDShrMW0o7-40" value="" style="endArrow=none;html=1;rounded=0;exitX=0.5;exitY=1;exitDx=0;exitDy=0;entryX=0.5;entryY=0;entryDx=0;entryDy=0;" edge="1" parent="1" source="e7eTB-TKiGBDShrMW0o7-4">
          <mxGeometry relative="1" as="geometry">
            <mxPoint x="650" y="640" as="sourcePoint" />
            <mxPoint x="510" y="675" as="targetPoint" />
          </mxGeometry>
        </mxCell>
        <mxCell id="e7eTB-TKiGBDShrMW0o7-41" value="" style="endArrow=none;html=1;rounded=0;exitX=0.5;exitY=1;exitDx=0;exitDy=0;entryX=0.5;entryY=0;entryDx=0;entryDy=0;" edge="1" parent="1" target="e7eTB-TKiGBDShrMW0o7-21">
          <mxGeometry relative="1" as="geometry">
            <mxPoint x="510" y="735" as="sourcePoint" />
            <mxPoint x="690" y="760" as="targetPoint" />
          </mxGeometry>
        </mxCell>
        <mxCell id="e7eTB-TKiGBDShrMW0o7-43" value="&lt;u style=&quot;&quot;&gt;Posizione&lt;/u&gt;" style="ellipse;whiteSpace=wrap;html=1;align=center;" vertex="1" parent="1">
          <mxGeometry x="600" y="620" width="100" height="40" as="geometry" />
        </mxCell>
        <mxCell id="e7eTB-TKiGBDShrMW0o7-44" value="" style="endArrow=none;html=1;rounded=0;exitX=1;exitY=0;exitDx=0;exitDy=0;entryX=0;entryY=1;entryDx=0;entryDy=0;" edge="1" parent="1" target="e7eTB-TKiGBDShrMW0o7-43">
          <mxGeometry relative="1" as="geometry">
            <mxPoint x="540" y="690" as="sourcePoint" />
            <mxPoint x="610" y="650" as="targetPoint" />
          </mxGeometry>
        </mxCell>
        <mxCell id="e7eTB-TKiGBDShrMW0o7-45" value="2°" style="text;html=1;align=center;verticalAlign=middle;resizable=0;points=[];autosize=1;strokeColor=none;fillColor=none;" vertex="1" parent="1">
          <mxGeometry x="550" y="735" width="30" height="30" as="geometry" />
        </mxCell>
        <mxCell id="e7eTB-TKiGBDShrMW0o7-46" value="2°" style="text;html=1;align=center;verticalAlign=middle;resizable=0;points=[];autosize=1;strokeColor=none;fillColor=none;" vertex="1" parent="1">
          <mxGeometry x="15" y="1460" width="30" height="30" as="geometry" />
        </mxCell>
        <mxCell id="e7eTB-TKiGBDShrMW0o7-47" value="Frase è individuata necessariamente con una chiave esterna alla pagina di riferimento, potrebbe essere un entità debole?&amp;nbsp;" style="text;html=1;align=center;verticalAlign=middle;resizable=0;points=[];autosize=1;strokeColor=none;fillColor=none;" vertex="1" parent="1">
          <mxGeometry x="15" y="1490" width="670" height="30" as="geometry" />
        </mxCell>
        <mxCell id="e7eTB-TKiGBDShrMW0o7-59" style="edgeStyle=orthogonalEdgeStyle;rounded=0;orthogonalLoop=1;jettySize=auto;html=1;exitX=0.5;exitY=0;exitDx=0;exitDy=0;entryX=1;entryY=0.5;entryDx=0;entryDy=0;endArrow=none;endFill=0;" edge="1" parent="1" source="e7eTB-TKiGBDShrMW0o7-48" target="e7eTB-TKiGBDShrMW0o7-4">
          <mxGeometry relative="1" as="geometry">
            <mxPoint x="790.344827586207" y="560" as="targetPoint" />
          </mxGeometry>
        </mxCell>
        <mxCell id="e7eTB-TKiGBDShrMW0o7-48" value="Collegamento" style="rounded=1;arcSize=10;whiteSpace=wrap;html=1;align=center;" vertex="1" parent="1">
          <mxGeometry x="740" y="830" width="100" height="40" as="geometry" />
        </mxCell>
        <mxCell id="e7eTB-TKiGBDShrMW0o7-49" value="" style="endArrow=none;html=1;rounded=0;exitX=1;exitY=0.5;exitDx=0;exitDy=0;entryX=0;entryY=0.5;entryDx=0;entryDy=0;" edge="1" parent="1" source="e7eTB-TKiGBDShrMW0o7-21" target="e7eTB-TKiGBDShrMW0o7-48">
          <mxGeometry relative="1" as="geometry">
            <mxPoint x="650" y="950" as="sourcePoint" />
            <mxPoint x="810" y="950" as="targetPoint" />
          </mxGeometry>
        </mxCell>
        <mxCell id="e7eTB-TKiGBDShrMW0o7-50" value="(0,1)" style="text;html=1;align=center;verticalAlign=middle;resizable=0;points=[];autosize=1;strokeColor=none;fillColor=none;" vertex="1" parent="1">
          <mxGeometry x="590" y="820" width="50" height="30" as="geometry" />
        </mxCell>
        <mxCell id="e7eTB-TKiGBDShrMW0o7-51" value="(1,1)" style="text;html=1;align=center;verticalAlign=middle;resizable=0;points=[];autosize=1;strokeColor=none;fillColor=none;" vertex="1" parent="1">
          <mxGeometry x="690" y="820" width="50" height="30" as="geometry" />
        </mxCell>
        <mxCell id="e7eTB-TKiGBDShrMW0o7-60" value="(1,1)" style="text;html=1;align=center;verticalAlign=middle;resizable=0;points=[];autosize=1;strokeColor=none;fillColor=none;" vertex="1" parent="1">
          <mxGeometry x="780" y="800" width="50" height="30" as="geometry" />
        </mxCell>
        <mxCell id="e7eTB-TKiGBDShrMW0o7-61" value="(0,N)" style="text;html=1;align=center;verticalAlign=middle;resizable=0;points=[];autosize=1;strokeColor=none;fillColor=none;fontSize=11;fontFamily=Helvetica;fontColor=default;" vertex="1" parent="1">
          <mxGeometry x="590" y="535" width="50" height="30" as="geometry" />
        </mxCell>
        <mxCell id="e7eTB-TKiGBDShrMW0o7-62" value="Una pagina ha una frase, la frase ha un collegamento che porta ad una pagina che non è quella iniziale" style="text;html=1;align=center;verticalAlign=middle;resizable=0;points=[];autosize=1;strokeColor=none;fillColor=none;fontSize=11;fontFamily=Helvetica;fontColor=default;" vertex="1" parent="1">
          <mxGeometry x="10" y="1550" width="530" height="30" as="geometry" />
        </mxCell>
        <mxCell id="e7eTB-TKiGBDShrMW0o7-63" value="3°" style="text;html=1;align=center;verticalAlign=middle;resizable=0;points=[];autosize=1;strokeColor=none;fillColor=none;fontSize=11;fontFamily=Helvetica;fontColor=default;" vertex="1" parent="1">
          <mxGeometry x="15" y="1530" width="30" height="30" as="geometry" />
        </mxCell>
        <mxCell id="e7eTB-TKiGBDShrMW0o7-64" value="3°" style="text;html=1;align=center;verticalAlign=middle;resizable=0;points=[];autosize=1;strokeColor=none;fillColor=none;fontSize=11;fontFamily=Helvetica;fontColor=default;" vertex="1" parent="1">
          <mxGeometry x="725" y="780" width="30" height="30" as="geometry" />
        </mxCell>
        <mxCell id="e7eTB-TKiGBDShrMW0o7-65" value="(1,N)" style="text;html=1;align=center;verticalAlign=middle;resizable=0;points=[];autosize=1;strokeColor=none;fillColor=none;" vertex="1" parent="1">
          <mxGeometry x="500" y="610" width="50" height="30" as="geometry" />
        </mxCell>
        <mxCell id="e7eTB-TKiGBDShrMW0o7-66" value="(1,1)" style="text;html=1;align=center;verticalAlign=middle;resizable=0;points=[];autosize=1;strokeColor=none;fillColor=none;" vertex="1" parent="1">
          <mxGeometry x="500" y="790" width="50" height="30" as="geometry" />
        </mxCell>
        <mxCell id="e7eTB-TKiGBDShrMW0o7-76" style="shape=connector;rounded=0;orthogonalLoop=1;jettySize=auto;html=1;labelBackgroundColor=default;strokeColor=default;align=center;verticalAlign=middle;fontFamily=Helvetica;fontSize=11;fontColor=default;endArrow=none;endFill=0;entryX=0;entryY=0.25;entryDx=0;entryDy=0;exitX=0.75;exitY=1;exitDx=0;exitDy=0;" edge="1" parent="1" source="e7eTB-TKiGBDShrMW0o7-67" target="e7eTB-TKiGBDShrMW0o7-4">
          <mxGeometry relative="1" as="geometry">
            <mxPoint x="230" y="480" as="targetPoint" />
          </mxGeometry>
        </mxCell>
        <mxCell id="e7eTB-TKiGBDShrMW0o7-78" style="edgeStyle=orthogonalEdgeStyle;shape=connector;rounded=0;orthogonalLoop=1;jettySize=auto;html=1;labelBackgroundColor=default;strokeColor=default;align=center;verticalAlign=middle;fontFamily=Helvetica;fontSize=11;fontColor=default;endArrow=none;endFill=0;entryX=0;entryY=0.5;entryDx=0;entryDy=0;" edge="1" parent="1" source="e7eTB-TKiGBDShrMW0o7-67" target="e7eTB-TKiGBDShrMW0o7-21">
          <mxGeometry relative="1" as="geometry">
            <mxPoint x="205" y="840" as="targetPoint" />
            <Array as="points">
              <mxPoint x="160" y="850" />
            </Array>
          </mxGeometry>
        </mxCell>
        <mxCell id="e7eTB-TKiGBDShrMW0o7-67" value="Utente Registrato (author)" style="rounded=1;arcSize=10;whiteSpace=wrap;html=1;align=center;fontFamily=Helvetica;fontSize=11;fontColor=default;" vertex="1" parent="1">
          <mxGeometry x="140" y="210" width="130" height="60" as="geometry" />
        </mxCell>
        <mxCell id="e7eTB-TKiGBDShrMW0o7-107" style="shape=connector;rounded=0;orthogonalLoop=1;jettySize=auto;html=1;entryX=1;entryY=0.75;entryDx=0;entryDy=0;labelBackgroundColor=default;strokeColor=default;align=center;verticalAlign=middle;fontFamily=Helvetica;fontSize=11;fontColor=default;endArrow=none;endFill=0;" edge="1" parent="1" source="e7eTB-TKiGBDShrMW0o7-68" target="e7eTB-TKiGBDShrMW0o7-96">
          <mxGeometry relative="1" as="geometry" />
        </mxCell>
        <mxCell id="e7eTB-TKiGBDShrMW0o7-68" value="&lt;u&gt;Password&lt;/u&gt;" style="ellipse;whiteSpace=wrap;html=1;align=center;fontFamily=Helvetica;fontSize=11;fontColor=default;" vertex="1" parent="1">
          <mxGeometry x="359.41" y="75" width="100" height="40" as="geometry" />
        </mxCell>
        <mxCell id="e7eTB-TKiGBDShrMW0o7-106" style="shape=connector;rounded=0;orthogonalLoop=1;jettySize=auto;html=1;entryX=0;entryY=0.75;entryDx=0;entryDy=0;labelBackgroundColor=default;strokeColor=default;align=center;verticalAlign=middle;fontFamily=Helvetica;fontSize=11;fontColor=default;endArrow=none;endFill=0;" edge="1" parent="1" source="e7eTB-TKiGBDShrMW0o7-69" target="e7eTB-TKiGBDShrMW0o7-96">
          <mxGeometry relative="1" as="geometry" />
        </mxCell>
        <mxCell id="e7eTB-TKiGBDShrMW0o7-69" value="&lt;u&gt;Username&lt;/u&gt;" style="ellipse;whiteSpace=wrap;html=1;align=center;fontFamily=Helvetica;fontSize=11;fontColor=default;" vertex="1" parent="1">
          <mxGeometry x="70" y="65" width="100" height="40" as="geometry" />
        </mxCell>
        <mxCell id="e7eTB-TKiGBDShrMW0o7-75" value="(1,1)" style="text;html=1;align=center;verticalAlign=middle;resizable=0;points=[];autosize=1;strokeColor=none;fillColor=none;fontSize=11;fontFamily=Helvetica;fontColor=default;" vertex="1" parent="1">
          <mxGeometry x="260" y="240" width="50" height="30" as="geometry" />
        </mxCell>
        <mxCell id="e7eTB-TKiGBDShrMW0o7-77" value="Master Creazione" style="text;html=1;align=center;verticalAlign=middle;resizable=0;points=[];autosize=1;strokeColor=none;fillColor=none;fontSize=11;fontFamily=Helvetica;fontColor=default;" vertex="1" parent="1">
          <mxGeometry x="325" y="380" width="110" height="30" as="geometry" />
        </mxCell>
        <mxCell id="e7eTB-TKiGBDShrMW0o7-81" value="(1,N)" style="text;html=1;align=center;verticalAlign=middle;resizable=0;points=[];autosize=1;strokeColor=none;fillColor=none;fontSize=11;fontFamily=Helvetica;fontColor=default;" vertex="1" parent="1">
          <mxGeometry x="220" y="300" width="50" height="30" as="geometry" />
        </mxCell>
        <mxCell id="e7eTB-TKiGBDShrMW0o7-82" value="(1,1)" style="text;html=1;align=center;verticalAlign=middle;resizable=0;points=[];autosize=1;strokeColor=none;fillColor=none;fontSize=11;fontFamily=Helvetica;fontColor=default;" vertex="1" parent="1">
          <mxGeometry x="400" y="490" width="50" height="30" as="geometry" />
        </mxCell>
        <mxCell id="e7eTB-TKiGBDShrMW0o7-83" value="(0,N)" style="text;html=1;align=center;verticalAlign=middle;resizable=0;points=[];autosize=1;strokeColor=none;fillColor=none;fontSize=11;fontFamily=Helvetica;fontColor=default;" vertex="1" parent="1">
          <mxGeometry x="150" y="280" width="50" height="30" as="geometry" />
        </mxCell>
        <mxCell id="e7eTB-TKiGBDShrMW0o7-84" value="(0,1)" style="text;html=1;align=center;verticalAlign=middle;resizable=0;points=[];autosize=1;strokeColor=none;fillColor=none;fontSize=11;fontFamily=Helvetica;fontColor=default;" vertex="1" parent="1">
          <mxGeometry x="380" y="820" width="50" height="30" as="geometry" />
        </mxCell>
        <mxCell id="e7eTB-TKiGBDShrMW0o7-85" value="&lt;u&gt;Data&lt;/u&gt;" style="ellipse;whiteSpace=wrap;html=1;align=center;fontFamily=Helvetica;fontSize=11;fontColor=default;" vertex="1" parent="1">
          <mxGeometry x="560" y="920" width="100" height="40" as="geometry" />
        </mxCell>
        <mxCell id="e7eTB-TKiGBDShrMW0o7-86" style="shape=connector;rounded=0;orthogonalLoop=1;jettySize=auto;html=1;exitX=0.5;exitY=0;exitDx=0;exitDy=0;entryX=0.795;entryY=1.001;entryDx=0;entryDy=0;entryPerimeter=0;labelBackgroundColor=default;strokeColor=default;align=center;verticalAlign=middle;fontFamily=Helvetica;fontSize=11;fontColor=default;endArrow=none;endFill=0;" edge="1" parent="1" source="e7eTB-TKiGBDShrMW0o7-85" target="e7eTB-TKiGBDShrMW0o7-21">
          <mxGeometry relative="1" as="geometry" />
        </mxCell>
        <mxCell id="e7eTB-TKiGBDShrMW0o7-87" value="Proposta" style="shape=rhombus;perimeter=rhombusPerimeter;whiteSpace=wrap;html=1;align=center;fontFamily=Helvetica;fontSize=11;fontColor=default;" vertex="1" parent="1">
          <mxGeometry x="110" y="550" width="100" height="60" as="geometry" />
        </mxCell>
        <mxCell id="e7eTB-TKiGBDShrMW0o7-88" value="is_master" style="ellipse;whiteSpace=wrap;html=1;align=center;fontFamily=Helvetica;fontSize=11;fontColor=default;" vertex="1" parent="1">
          <mxGeometry x="210" y="485" width="70" height="45" as="geometry" />
        </mxCell>
        <mxCell id="e7eTB-TKiGBDShrMW0o7-89" style="shape=connector;rounded=0;orthogonalLoop=1;jettySize=auto;html=1;entryX=1;entryY=0;entryDx=0;entryDy=0;labelBackgroundColor=default;strokeColor=default;align=center;verticalAlign=middle;fontFamily=Helvetica;fontSize=11;fontColor=default;endArrow=none;endFill=0;" edge="1" parent="1" source="e7eTB-TKiGBDShrMW0o7-88" target="e7eTB-TKiGBDShrMW0o7-87">
          <mxGeometry relative="1" as="geometry" />
        </mxCell>
        <mxCell id="e7eTB-TKiGBDShrMW0o7-90" value="Visitatore" style="rounded=1;arcSize=10;whiteSpace=wrap;html=1;align=center;fontFamily=Helvetica;fontSize=11;fontColor=default;" vertex="1" parent="1">
          <mxGeometry x="320" y="210" width="110" height="50" as="geometry" />
        </mxCell>
        <mxCell id="e7eTB-TKiGBDShrMW0o7-108" style="edgeStyle=orthogonalEdgeStyle;shape=connector;rounded=0;orthogonalLoop=1;jettySize=auto;html=1;labelBackgroundColor=default;strokeColor=default;align=center;verticalAlign=middle;fontFamily=Helvetica;fontSize=11;fontColor=default;endArrow=none;endFill=0;" edge="1" parent="1" source="e7eTB-TKiGBDShrMW0o7-96">
          <mxGeometry relative="1" as="geometry">
            <mxPoint x="590" y="530" as="targetPoint" />
            <Array as="points">
              <mxPoint x="730" y="35" />
              <mxPoint x="730" y="530" />
              <mxPoint x="590" y="530" />
            </Array>
          </mxGeometry>
        </mxCell>
        <mxCell id="e7eTB-TKiGBDShrMW0o7-96" value="Utente" style="rounded=1;arcSize=10;whiteSpace=wrap;html=1;align=center;fontFamily=Helvetica;fontSize=11;fontColor=default;" vertex="1" parent="1">
          <mxGeometry x="221.91" y="10" width="105" height="50" as="geometry" />
        </mxCell>
        <mxCell id="e7eTB-TKiGBDShrMW0o7-97" style="rounded=0;orthogonalLoop=1;jettySize=auto;html=1;exitX=0.5;exitY=1;exitDx=0;exitDy=0;entryX=0.306;entryY=0.08;entryDx=0;entryDy=0;endArrow=none;endFill=0;entryPerimeter=0;" edge="1" parent="1" target="e7eTB-TKiGBDShrMW0o7-100">
          <mxGeometry relative="1" as="geometry">
            <mxPoint x="264.40999999999997" y="60" as="sourcePoint" />
            <mxPoint x="264.40999999999997" y="105" as="targetPoint" />
          </mxGeometry>
        </mxCell>
        <mxCell id="e7eTB-TKiGBDShrMW0o7-98" style="rounded=0;orthogonalLoop=1;jettySize=auto;html=1;exitX=0;exitY=1;exitDx=0;exitDy=0;entryX=0.5;entryY=0;entryDx=0;entryDy=0;endArrow=none;endFill=0;" edge="1" parent="1" source="e7eTB-TKiGBDShrMW0o7-100">
          <mxGeometry relative="1" as="geometry">
            <mxPoint x="209.41" y="210" as="targetPoint" />
          </mxGeometry>
        </mxCell>
        <mxCell id="e7eTB-TKiGBDShrMW0o7-99" style="rounded=0;orthogonalLoop=1;jettySize=auto;html=1;exitX=1;exitY=1;exitDx=0;exitDy=0;entryX=0.5;entryY=0;entryDx=0;entryDy=0;endArrow=none;endFill=0;" edge="1" parent="1" source="e7eTB-TKiGBDShrMW0o7-100">
          <mxGeometry relative="1" as="geometry">
            <mxPoint x="349.40999999999997" y="210" as="targetPoint" />
          </mxGeometry>
        </mxCell>
        <mxCell id="e7eTB-TKiGBDShrMW0o7-100" value="" style="ellipse;whiteSpace=wrap;html=1;aspect=fixed;" vertex="1" parent="1">
          <mxGeometry x="249.41" y="105" width="50" height="50" as="geometry" />
        </mxCell>
        <mxCell id="e7eTB-TKiGBDShrMW0o7-101" style="rounded=0;orthogonalLoop=1;jettySize=auto;html=1;exitX=0.5;exitY=1;exitDx=0;exitDy=0;entryX=0.695;entryY=0.069;entryDx=0;entryDy=0;endArrow=none;endFill=0;entryPerimeter=0;" edge="1" parent="1" target="e7eTB-TKiGBDShrMW0o7-100">
          <mxGeometry relative="1" as="geometry">
            <mxPoint x="284.40999999999997" y="60" as="sourcePoint" />
            <mxPoint x="284.40999999999997" y="105" as="targetPoint" />
          </mxGeometry>
        </mxCell>
        <mxCell id="e7eTB-TKiGBDShrMW0o7-102" value="&lt;font style=&quot;font-size: 36px;&quot;&gt;U&lt;/font&gt;" style="text;html=1;strokeColor=none;fillColor=none;align=center;verticalAlign=middle;whiteSpace=wrap;rounded=0;rotation=40;" vertex="1" parent="1">
          <mxGeometry x="190.57999999999998" y="161.61" width="85" height="30" as="geometry" />
        </mxCell>
        <mxCell id="e7eTB-TKiGBDShrMW0o7-103" value="&lt;font style=&quot;font-size: 36px;&quot;&gt;U&lt;/font&gt;" style="text;html=1;strokeColor=none;fillColor=none;align=center;verticalAlign=middle;whiteSpace=wrap;rounded=0;rotation=-35;" vertex="1" parent="1">
          <mxGeometry x="284.40999999999997" y="164.82000000000005" width="75" height="30" as="geometry" />
        </mxCell>
        <mxCell id="e7eTB-TKiGBDShrMW0o7-104" value="&lt;font size=&quot;1&quot;&gt;&lt;b style=&quot;font-size: 31px;&quot;&gt;D&lt;/b&gt;&lt;/font&gt;" style="text;html=1;strokeColor=none;fillColor=none;align=center;verticalAlign=middle;whiteSpace=wrap;rounded=0;fontSize=11;fontFamily=Helvetica;fontColor=default;" vertex="1" parent="1">
          <mxGeometry x="244.41" y="115" width="60" height="30" as="geometry" />
        </mxCell>
        <mxCell id="e7eTB-TKiGBDShrMW0o7-109" value="Visita" style="text;html=1;align=center;verticalAlign=middle;resizable=0;points=[];autosize=1;strokeColor=none;fillColor=none;fontSize=11;fontFamily=Helvetica;fontColor=default;" vertex="1" parent="1">
          <mxGeometry x="685" y="250" width="50" height="30" as="geometry" />
        </mxCell>
        <mxCell id="e7eTB-TKiGBDShrMW0o7-111" value="(1,N)" style="text;html=1;align=center;verticalAlign=middle;resizable=0;points=[];autosize=1;strokeColor=none;fillColor=none;fontSize=11;fontFamily=Helvetica;fontColor=default;" vertex="1" parent="1">
          <mxGeometry x="590" y="500" width="50" height="30" as="geometry" />
        </mxCell>
        <mxCell id="e7eTB-TKiGBDShrMW0o7-112" value="(1,N)" style="text;html=1;align=center;verticalAlign=middle;resizable=0;points=[];autosize=1;strokeColor=none;fillColor=none;fontSize=11;fontFamily=Helvetica;fontColor=default;" vertex="1" parent="1">
          <mxGeometry x="330" y="10" width="50" height="30" as="geometry" />
        </mxCell>
        <mxCell id="e7eTB-TKiGBDShrMW0o7-117" value="DataCreazione" style="ellipse;whiteSpace=wrap;html=1;align=center;fontFamily=Helvetica;fontSize=11;fontColor=default;" vertex="1" parent="1">
          <mxGeometry x="540" y="445" width="100" height="40" as="geometry" />
        </mxCell>
        <mxCell id="e7eTB-TKiGBDShrMW0o7-118" style="shape=connector;rounded=0;orthogonalLoop=1;jettySize=auto;html=1;entryX=0.828;entryY=-0.002;entryDx=0;entryDy=0;entryPerimeter=0;labelBackgroundColor=default;strokeColor=default;align=center;verticalAlign=middle;fontFamily=Helvetica;fontSize=11;fontColor=default;endArrow=none;endFill=0;" edge="1" parent="1" source="e7eTB-TKiGBDShrMW0o7-117" target="e7eTB-TKiGBDShrMW0o7-4">
          <mxGeometry relative="1" as="geometry" />
        </mxCell>
        <mxCell id="e7eTB-TKiGBDShrMW0o7-119" value="" style="shape=connector;rounded=0;orthogonalLoop=1;jettySize=auto;html=1;labelBackgroundColor=default;strokeColor=default;align=center;verticalAlign=middle;fontFamily=Helvetica;fontSize=11;fontColor=default;endArrow=none;endFill=0;exitX=1.003;exitY=0.84;exitDx=0;exitDy=0;exitPerimeter=0;entryX=0;entryY=0.25;entryDx=0;entryDy=0;" edge="1" parent="1" source="e7eTB-TKiGBDShrMW0o7-67" target="e7eTB-TKiGBDShrMW0o7-1">
          <mxGeometry relative="1" as="geometry">
            <mxPoint x="270" y="260" as="sourcePoint" />
            <mxPoint x="430" y="320" as="targetPoint" />
          </mxGeometry>
        </mxCell>
        <mxCell id="e7eTB-TKiGBDShrMW0o7-73" value="(1,N)" style="text;html=1;align=center;verticalAlign=middle;resizable=0;points=[];autosize=1;strokeColor=none;fillColor=none;fontSize=11;fontFamily=Helvetica;fontColor=default;" vertex="1" parent="1">
          <mxGeometry x="384.41" y="280" width="50" height="30" as="geometry" />
        </mxCell>
        <mxCell id="e7eTB-TKiGBDShrMW0o7-122" value="Composizione" style="shape=rhombus;double=1;perimeter=rhombusPerimeter;whiteSpace=wrap;html=1;align=center;fontFamily=Helvetica;fontSize=11;fontColor=default;" vertex="1" parent="1">
          <mxGeometry x="450" y="675" width="120" height="60" as="geometry" />
        </mxCell>
        <mxCell id="e7eTB-TKiGBDShrMW0o7-125" style="edgeStyle=orthogonalEdgeStyle;shape=connector;rounded=0;orthogonalLoop=1;jettySize=auto;html=1;entryX=0.5;entryY=1;entryDx=0;entryDy=0;labelBackgroundColor=default;strokeColor=default;align=center;verticalAlign=middle;fontFamily=Helvetica;fontSize=11;fontColor=default;endArrow=none;endFill=0;" edge="1" parent="1" source="e7eTB-TKiGBDShrMW0o7-124" target="e7eTB-TKiGBDShrMW0o7-21">
          <mxGeometry relative="1" as="geometry" />
        </mxCell>
        <mxCell id="e7eTB-TKiGBDShrMW0o7-124" value="&lt;u&gt;Orario&lt;/u&gt;" style="ellipse;whiteSpace=wrap;html=1;align=center;fontFamily=Helvetica;fontSize=11;fontColor=default;" vertex="1" parent="1">
          <mxGeometry x="459.41" y="980" width="100" height="40" as="geometry" />
        </mxCell>
        <mxCell id="e7eTB-TKiGBDShrMW0o7-126" value="4°" style="text;html=1;align=center;verticalAlign=middle;resizable=0;points=[];autosize=1;strokeColor=none;fillColor=none;fontSize=11;fontFamily=Helvetica;fontColor=default;" vertex="1" parent="1">
          <mxGeometry x="530" y="260" width="30" height="30" as="geometry" />
        </mxCell>
        <mxCell id="e7eTB-TKiGBDShrMW0o7-127" value="4° Questa entità è necessaria?" style="text;html=1;align=center;verticalAlign=middle;resizable=0;points=[];autosize=1;strokeColor=none;fillColor=none;fontSize=11;fontFamily=Helvetica;fontColor=default;" vertex="1" parent="1">
          <mxGeometry x="14.999999999999998" y="1600" width="170" height="30" as="geometry" />
        </mxCell>
      </root>
    </mxGraphModel>
  </diagram>
</mxfile>
